# xmcd CD database file
#
# Track frame offsets:
#	200
#	18725
#	37845
#	56552
#	76847
#	106585
#	134030
#	162527
#	195182
#	216747
#
# Disc length: 3211 seconds
#
# Revision: 0
# Processed by: cddbd v1.5.2PL0 Copyright (c) Steve Scherf et al.
# Submitted via: CDex 1.82
#
DISCID=850c890a
DTITLE=Al MacDowell - Messiah
DYEAR=1991
DGENRE=Jazz
TTITLE0=Messiah
TTITLE1=The Powerful One
TTITLE2=Playing in the Sand
TTITLE3=Close to the Edge
TTITLE4=Jamming in the Pyramids
TTITLE5=Offset
TTITLE6=Second Calling
TTITLE7=Let The Music Sing
TTITLE8=Latin Lady
TTITLE9=Here We Comg Again
EXTD=YEAR: 1991
EXTT0=
EXTT1=
EXTT2=
EXTT3=
EXTT4=
EXTT5=
EXTT6=
EXTT7=
EXTT8=
EXTT9=
PLAYORDER=
